<svg width="39" height="39" className="ki" viewBox="0 0 39 39" fill="none" xmlns="http://www.w3.org/2000/svg">
<path fill-rule="evenodd" clip-rule="evenodd" d="M30.875 9.75H29.25V8.125C29.25 5.43261 27.0674 3.25 24.375 3.25H8.125C5.43261 3.25 3.25 5.43261 3.25 8.125V19.5C3.25 22.1924 5.43261 24.375 8.125 24.375V27.625C8.12685 28.2369 8.4723 28.7959 9.01875 29.0712C9.243 29.1929 9.49491 29.2545 9.75 29.25C10.1016 29.25 10.4437 29.136 10.725 28.925C11.6457 30.1526 13.0906 30.875 14.625 30.875H22.2138L28.275 35.425C28.5563 35.636 28.8984 35.75 29.25 35.75C29.5051 35.7545 29.757 35.6929 29.9812 35.5713C30.5277 35.2959 30.8731 34.7369 30.875 34.125V30.875C33.5674 30.875 35.75 28.6924 35.75 26V14.625C35.75 11.9326 33.5674 9.75 30.875 9.75ZM11.375 24.375V22.75C11.375 21.8525 10.6475 21.125 9.75 21.125H8.125C7.22754 21.125 6.5 20.3975 6.5 19.5V8.125C6.5 7.22754 7.22754 6.5 8.125 6.5H24.375C25.2725 6.5 26 7.22754 26 8.125V19.5C26 20.3975 25.2725 21.125 24.375 21.125H16.25C15.8984 21.125 15.5563 21.239 15.275 21.45L11.375 24.375ZM30.875 27.625C31.7725 27.625 32.5 26.8975 32.5 26V14.625C32.5 13.7275 31.7725 13 30.875 13H29.25V19.5C29.25 22.1924 27.0674 24.375 24.375 24.375H16.7863L13.3575 26.9587C13.6541 27.365 14.1222 27.6111 14.625 27.625H22.75C23.1016 27.625 23.4437 27.739 23.725 27.95L27.625 30.875V29.25C27.625 28.3525 28.3525 27.625 29.25 27.625H30.875Z" fill="#696969"/>
</svg>
