<svg width="39" height="39" viewBox="0 0 39 39" fill="none" xmlns="http://www.w3.org/2000/svg">
<path fill-rule="evenodd" clip-rule="evenodd" d="M11.375 3.34766H27.625C30.3741 3.40981 32.5545 5.6847 32.5 8.43391V32.2889C32.5068 33.6146 31.738 34.8219 30.5338 35.3764C30.1234 35.5549 29.6813 35.6488 29.2338 35.6527C28.4433 35.6478 27.6836 35.3462 27.105 34.8077L19.5 27.8852L11.895 34.8077C10.958 35.6438 9.62308 35.8652 8.46627 35.3764C7.26207 34.8219 6.49322 33.6146 6.50002 32.2889V8.43391C6.44558 5.6847 8.62598 3.40981 11.375 3.34766ZM21.6613 25.4802L29.25 32.4027V8.43391C29.2967 7.48217 28.5754 6.6671 27.625 6.59766H11.375C10.4247 6.6671 9.70337 7.48217 9.75002 8.43391V32.2889L17.2738 25.4802C18.5156 24.344 20.4194 24.344 21.6613 25.4802Z" fill="#62607B"/>
</svg>
