<svg width="39" height="29" viewBox="0 0 39 29" fill="none" xmlns="http://www.w3.org/2000/svg">
<mask id="path-1-inside-1_314_351" fill="white">
<path d="M19.2605 27.4002C21.4231 28.303 23.7749 28.6584 26.1077 28.4352C28.4405 28.2119 30.6822 27.4168 32.6342 26.1202C34.5863 24.8236 36.1885 23.0656 37.2988 21.002C38.4092 18.9383 38.9935 16.6326 38.9999 14.2892C39.0064 11.9458 38.4348 9.63696 37.3358 7.56721C36.2368 5.49746 34.6444 3.73069 32.6995 2.42339C30.7546 1.1161 28.5173 0.308629 26.1858 0.0725156C23.8543 -0.163598 21.5005 0.178929 19.333 1.06976L20.7436 4.50197C22.3467 3.84311 24.0875 3.58978 25.8119 3.76441C27.5363 3.93904 29.1909 4.53624 30.6294 5.50311C32.0678 6.46997 33.2456 7.77667 34.0584 9.30744C34.8712 10.8382 35.2939 12.5458 35.2892 14.279C35.2844 16.0122 34.8523 17.7174 34.0311 19.2437C33.2098 20.77 32.0249 22.0702 30.5811 23.0291C29.1374 23.9881 27.4795 24.5761 25.7542 24.7413C24.0289 24.9064 22.2895 24.6435 20.69 23.9758L19.2605 27.4002Z"/>
</mask>
<path d="M19.2605 27.4002C21.4231 28.303 23.7749 28.6584 26.1077 28.4352C28.4405 28.2119 30.6822 27.4168 32.6342 26.1202C34.5863 24.8236 36.1885 23.0656 37.2988 21.002C38.4092 18.9383 38.9935 16.6326 38.9999 14.2892C39.0064 11.9458 38.4348 9.63696 37.3358 7.56721C36.2368 5.49746 34.6444 3.73069 32.6995 2.42339C30.7546 1.1161 28.5173 0.308629 26.1858 0.0725156C23.8543 -0.163598 21.5005 0.178929 19.333 1.06976L20.7436 4.50197C22.3467 3.84311 24.0875 3.58978 25.8119 3.76441C27.5363 3.93904 29.1909 4.53624 30.6294 5.50311C32.0678 6.46997 33.2456 7.77667 34.0584 9.30744C34.8712 10.8382 35.2939 12.5458 35.2892 14.279C35.2844 16.0122 34.8523 17.7174 34.0311 19.2437C33.2098 20.77 32.0249 22.0702 30.5811 23.0291C29.1374 23.9881 27.4795 24.5761 25.7542 24.7413C24.0289 24.9064 22.2895 24.6435 20.69 23.9758L19.2605 27.4002Z" fill="#62607B" stroke="#62607B" stroke-width="2" mask="url(#path-1-inside-1_314_351)"/>
<circle cx="14.25" cy="14.25" r="12.5" stroke="#62607B" stroke-width="3.5"/>
</svg>
