<svg width="39" height="39" viewBox="0 0 39 39" fill="none" xmlns="http://www.w3.org/2000/svg">
<path fill-rule="evenodd" clip-rule="evenodd" d="M32.5001 12.5774L35.1976 15.0311C35.8698 15.6239 35.9353 16.649 35.3438 17.3224C34.7511 17.9947 33.726 18.0601 33.0526 17.4686L32.5001 16.9811V30.8749C32.5001 33.5673 30.3174 35.7499 27.6251 35.7499H22.7501C21.8526 35.7499 21.1251 35.0224 21.1251 34.1249V25.9999C21.1319 25.5766 20.961 25.1699 20.6538 24.8786C20.3525 24.5625 19.9367 24.381 19.5001 24.3749C18.6026 24.3749 17.8751 25.1024 17.8751 25.9999V34.1249C17.8751 35.0224 17.1475 35.7499 16.2501 35.7499H11.3751C8.68267 35.7499 6.50006 33.5673 6.50006 30.8749V16.9811L5.94756 17.4686C5.27007 18.0143 4.28301 17.9297 3.70832 17.2766C3.13363 16.6236 3.17517 15.6338 3.80256 15.0311L6.50006 12.5774L7.88131 11.3749L18.4276 2.03115C19.041 1.49222 19.9591 1.49222 20.5726 2.03115L31.1188 11.3749L32.5001 12.5774ZM27.6251 32.4999C28.5225 32.4999 29.2501 31.7724 29.2501 30.8749V14.0886L19.5001 5.4274L9.75006 14.0886V30.8749C9.75006 31.7724 10.4776 32.4999 11.3751 32.4999H14.6251V25.9999C14.6251 23.3075 16.8077 21.1249 19.5001 21.1249C22.1924 21.1249 24.3751 23.3075 24.3751 25.9999V32.4999H27.6251Z" fill="#62607B"/>
</svg>
